<svg xmlns="http://www.w3.org/2000/svg" version="1.1" xmlns:xlink="http://www.w3.org/1999/xlink" xmlns:svgjs="http://svgjs.com/svgjs" width="2400" height="1200" preserveAspectRatio="none" viewBox="0 0 2400 1200"><g mask="url(&quot;#SvgjsMask1167&quot;)" fill="none"><rect width="2400" height="1200" x="0" y="0" fill="rgba(120, 66, 18, 1)"></rect><path d="M0,947.666C174.412,948.782,289.959,773.505,440.557,685.52C599.712,592.536,822.876,577.987,910.411,415.771C998.148,253.181,880.613,58.412,878.647,-126.33C876.287,-348.08,1050.28,-616.932,897.706,-777.867C742.718,-941.347,453.731,-745.914,236.1,-804.084C27.105,-859.946,-110.212,-1135.505,-324.31,-1104.497C-534.269,-1074.088,-629.396,-825.826,-761.26,-659.635C-887.232,-500.87,-1074.915,-357.604,-1077.723,-154.953C-1080.514,46.468,-897.957,194.273,-775.308,354.071C-678.002,480.85,-563.845,582.752,-436.949,679.906C-298.512,785.897,-174.349,946.551,0,947.666" fill="#4e2b0c"></path><path d="M2400 2007.196C2546.651 1976.44 2670.983 1898.71 2799.201 1821.1689999999999 2931.182 1741.3519999999999 3067.109 1670.069 3160.468 1547.2939999999999 3270.5370000000003 1402.544 3413.969 1237.667 3378.525 1059.309 3342.9210000000003 880.142 3124.665 812.1600000000001 2989.88 688.866 2873.252 582.181 2784.797 446.30499999999995 2639.743 383.51199999999994 2483.2 315.746 2305.788 273.672 2142.166 321.89700000000005 1978.6019999999999 370.105 1849.841 499.96799999999996 1757.73 643.47 1672.8890000000001 775.6469999999999 1646.922 934.81 1647.9360000000001 1091.87 1648.848 1233.15 1729.2440000000001 1353.675 1763.2 1490.817 1807.0259999999998 1667.824 1734.788 1899.845 1876.425 2014.6979999999999 2014.799 2126.9049999999997 2225.642 2043.763 2400 2007.196" fill="#a25918"></path></g><defs><mask id="SvgjsMask1167"><rect width="2400" height="1200" fill="#ffffff"></rect></mask></defs></svg>