<svg xmlns="http://www.w3.org/2000/svg" version="1.1" xmlns:xlink="http://www.w3.org/1999/xlink" xmlns:svgjs="http://svgjs.com/svgjs" width="2500" height="1250" preserveAspectRatio="none" viewBox="0 0 2500 1250"><g mask="url(&quot;#SvgjsMask1066&quot;)" fill="none"><path d="M355.436,844.867C421.964,845.752,478.656,802.862,513.291,746.053C549.637,686.437,570.242,611.506,534.149,551.736C498.895,493.356,423.57,481.678,355.436,484.645C293.347,487.349,233.206,512.585,201.79,566.208C170.047,620.389,174.37,686.959,204.69,741.949C236.177,799.055,290.231,844,355.436,844.867" fill="rgba(0, 0, 0, 0.24)" class="triangle-float2"></path><path d="M1121.4505892595603 572.9647057264613L1082.8812696930138 791.7021865792418 1430.272150755458 740.1874255026712z" fill="rgba(0, 0, 0, 0.24)" class="triangle-float1"></path><path d="M1385.695,549.354C1427.55,546.5,1456.665,512.407,1477.292,475.876C1497.474,440.133,1512.374,397.25,1491.557,361.873C1470.945,326.845,1426.274,317.945,1385.695,320.217C1349.412,322.249,1319.065,342.684,1298.552,372.681C1274.172,408.332,1250.455,451.309,1269.561,490.043C1290.17,531.826,1339.214,552.524,1385.695,549.354" fill="rgba(0, 0, 0, 0.24)" class="triangle-float3"></path><path d="M464.078,1582.995C580.862,1588.476,701.884,1541.58,757.924,1438.973C812.232,1339.537,775.354,1220.298,714.295,1124.858C658.596,1037.796,567.289,985.109,464.078,979.667C349.135,973.606,220.982,996.06,163.566,1095.82C106.237,1195.43,154.072,1315.651,214.41,1413.467C271.014,1505.23,356.38,1577.941,464.078,1582.995" fill="rgba(0, 0, 0, 0.24)" class="triangle-float1"></path><path d="M1916.871,1512.572C2032.56,1515.626,2110.539,1405.348,2163.328,1302.36C2210.691,1209.958,2221.841,1103.797,2173.503,1011.901C2121.55,913.132,2028.433,836.674,1916.871,833.813C1800.771,830.836,1687.743,893.964,1636.381,998.127C1589.449,1093.306,1641.169,1196.743,1691.969,1289.915C1746.094,1389.185,1803.844,1509.588,1916.871,1512.572" fill="rgba(0, 0, 0, 0.24)" class="triangle-float3"></path><path d="M665.20938842659 895.2787177907969L652.6496005019748 1254.9439859797817 1024.8746566155748 907.8385057154121z" fill="rgba(0, 0, 0, 0.24)" class="triangle-float1"></path><path d="M942.5634176414097 1207.2314856758553L910.7904640417156 1027.038111570353 656.3868796833093 1164.7942290226454z" fill="rgba(0, 0, 0, 0.24)" class="triangle-float2"></path><path d="M2279.07,471.868C2372.58,478.445,2480.695,475.696,2530.291,396.15C2581.633,313.803,2545.46,209.296,2494.122,126.947C2446.254,50.165,2369.529,-8.791,2279.07,-6.818C2191.469,-4.907,2120.673,58.549,2079.676,135.988C2041.45,208.193,2040.707,294.397,2082.412,364.649C2123.262,433.46,2199.244,466.253,2279.07,471.868" fill="rgba(0, 0, 0, 0.24)" class="triangle-float3"></path><path d="M453.992,888.765C567.266,890.847,681.205,850.191,741.037,753.986C804.076,652.625,809.032,521.015,745.585,419.909C685.461,324.098,566.95,290.64,453.992,296.561C351.835,301.916,263.719,360.304,210.942,447.935C156.201,538.827,133.43,650.842,184.66,743.759C237.424,839.46,344.727,886.757,453.992,888.765" fill="rgba(0, 0, 0, 0.24)" class="triangle-float1"></path><path d="M952.4799415042412 613.8166361761996L861.6505094747301 218.6734330322344 598.2611225564925 455.83030223854416z" fill="rgba(0, 0, 0, 0.24)" class="triangle-float3"></path><path d="M522.6609512833194 285.3750449899264L515.7020262098415 663.4050645559655 807.5282829377252 508.2382914472857z" fill="rgba(0, 0, 0, 0.24)" class="triangle-float1"></path><path d="M441.47944215842074-15.075586022604387L317.2153151900453 325.3275570685426 630.0883369255151 275.77333862832364z" fill="rgba(0, 0, 0, 0.24)" class="triangle-float3"></path><path d="M2292.9933597432964 1245.196478256026L2382.4403682932034 887.8951015357673 2071.4353975471017 971.2286322892503z" fill="rgba(0, 0, 0, 0.24)" class="triangle-float1"></path><path d="M2692.626,723.105C2829.953,724.907,2964.687,651.39,3023.397,527.232C3076.154,415.665,3007.806,296.775,2944.248,190.988C2883.436,89.772,2810.523,-16.749,2692.626,-23.308C2565.602,-30.375,2451.424,50.104,2387.341,160.005C2322.753,270.773,2315.445,406.02,2376.558,518.743C2440.647,636.956,2558.17,721.341,2692.626,723.105" fill="rgba(0, 0, 0, 0.24)" class="triangle-float1"></path></g><defs><mask id="SvgjsMask1066"><rect width="2500" height="1250" fill="#ffffff"></rect></mask><style>
            @keyframes float1 {
                0%{transform: translate(0, 0)}
                50%{transform: translate(-10px, 0)}
                100%{transform: translate(0, 0)}
            }

            .triangle-float1 {
                animation: float1 5s infinite;
            }

            @keyframes float2 {
                0%{transform: translate(0, 0)}
                50%{transform: translate(-5px, -5px)}
                100%{transform: translate(0, 0)}
            }

            .triangle-float2 {
                animation: float2 4s infinite;
            }

            @keyframes float3 {
                0%{transform: translate(0, 0)}
                50%{transform: translate(0, -10px)}
                100%{transform: translate(0, 0)}
            }

            .triangle-float3 {
                animation: float3 6s infinite;
            }
        </style></defs></svg>