<svg xmlns="http://www.w3.org/2000/svg" version="1.1" xmlns:xlink="http://www.w3.org/1999/xlink" xmlns:svgjs="http://svgjs.com/svgjs" width="1440" height="560" preserveAspectRatio="none" viewBox="0 0 1440 560"><g mask="url(&quot;#SvgjsMask1002&quot;)" fill="none"><rect width="1440" height="560" x="0" y="0" fill="url(#SvgjsLinearGradient1003)"></rect><path d="M1440 0L1419.77 0L1440 69.04z" fill="rgba(255, 255, 255, .1)"></path><path d="M1419.77 0L1440 69.04L1440 143.92000000000002L787.18 0z" fill="rgba(255, 255, 255, .075)"></path><path d="M787.18 0L1440 143.92000000000002L1440 322.14L491.17999999999995 0z" fill="rgba(255, 255, 255, .05)"></path><path d="M491.17999999999995 0L1440 322.14L1440 475.75L362.02 0z" fill="rgba(255, 255, 255, .025)"></path><path d="M0 560L47.49 560L0 528.16z" fill="rgba(0, 0, 0, .1)"></path><path d="M0 528.16L47.49 560L445.63 560L0 510.93999999999994z" fill="rgba(0, 0, 0, .075)"></path><path d="M0 510.94L445.63 560L596.28 560L0 214.7z" fill="rgba(0, 0, 0, .05)"></path><path d="M0 214.7L596.28 560L1128.99 560L0 98.30999999999999z" fill="rgba(0, 0, 0, .025)"></path></g><defs><mask id="SvgjsMask1002"><rect width="1440" height="560" fill="#ffffff"></rect></mask><linearGradient x1="15.28%" y1="-39.29%" x2="84.72%" y2="139.29%" gradientUnits="userSpaceOnUse" id="SvgjsLinearGradient1003"><stop stop-color="#0e2a47" offset="0"></stop><stop stop-color="#00459e" offset="1"></stop></linearGradient></defs></svg>