<svg xmlns="http://www.w3.org/2000/svg" version="1.1" xmlns:xlink="http://www.w3.org/1999/xlink" xmlns:svgjs="http://svgjs.com/svgjs" width="2400" height="1200" preserveAspectRatio="none" viewBox="0 0 2400 1200"><g mask="url(&quot;#SvgjsMask1208&quot;)" fill="none"><rect width="2400" height="1200" x="0" y="0" fill="rgba(219, 241, 255, 1)"></rect><path d="M0,813.863C160.819,814.89,316.878,787.267,463.538,721.279C629.292,646.7,807.059,567.513,897.686,409.96C991.143,247.486,970.475,49.308,957.626,-137.686C943.876,-337.792,966.443,-573.343,820.653,-711.1C674.644,-849.064,430.15,-752.428,239.634,-816.117C37.962,-883.535,-115.964,-1149.624,-320.845,-1092.698C-524.884,-1036.006,-522.913,-733.086,-654.985,-567.547C-779.312,-411.716,-1028.349,-348.799,-1069.906,-153.829C-1111.43,40.987,-974.072,229.545,-859.628,392.579C-759.172,535.685,-616.752,638.438,-459.748,715.382C-316.104,785.778,-159.963,812.841,0,813.863" fill="#bae4ff"></path><path d="M2400 1763.6109999999999C2506.677 1742.9650000000001 2615.222 1735.81 2708.049 1679.334 2802.4030000000002 1621.929 2876.49 1538.7350000000001 2929.169 1441.663 2984.5950000000003 1339.528 3025.196 1227.256 3016.254 1111.396 3006.9880000000003 991.336 2948.191 883.576 2878.515 785.365 2803.012 678.942 2725.611 553.695 2598.793 522.972 2472.651 492.413 2355.657 588.503 2232.283 628.807 2113.343 667.663 1971.454 663.157 1887.016 755.4970000000001 1802.129 848.329 1816.92 989.406 1790.1509999999998 1112.317 1761.004 1246.15 1682.933 1378.218 1722.859 1509.24 1764.1190000000001 1644.6390000000001 1871.931 1765.734 2004.436 1815.51 2131.5 1863.242 2266.739 1789.402 2400 1763.6109999999999" fill="#fcfeff"></path></g><defs><mask id="SvgjsMask1208"><rect width="2400" height="1200" fill="#ffffff"></rect></mask></defs></svg>