<?xml version="1.0" standalone="no"?>
<!DOCTYPE svg PUBLIC "-//W3C//DTD SVG 20010904//EN"
 "http://www.w3.org/TR/2001/REC-SVG-20010904/DTD/svg10.dtd">
<svg version="1.0" xmlns="http://www.w3.org/2000/svg"
 width="910.000000pt" height="274.000000pt" viewBox="0 0 910.000000 274.000000"
 preserveAspectRatio="xMidYMid meet">
<metadata>
Created by potrace 1.16, written by Peter Selinger 2001-2019
</metadata>
<g transform="translate(0.000000,274.000000) scale(0.100000,-0.100000)"
fill="#000000" stroke="none">
<path d="M5942 1634 c-35 -7 -74 -19 -87 -26 -76 -43 -159 -105 -198 -151 -26
-28 -62 -68 -81 -87 -68 -69 -175 -223 -228 -326 -53 -105 -53 -107 -53 -197
0 -86 2 -96 33 -148 38 -67 98 -124 156 -150 23 -10 82 -25 132 -34 81 -14 97
-14 189 1 55 9 109 22 120 28 11 7 58 30 105 51 47 21 94 46 106 56 11 11 24
19 27 19 10 0 155 97 184 123 l21 19 38 -51 c29 -39 49 -54 84 -65 142 -46
200 -29 392 116 73 56 148 102 154 95 3 -2 -9 -59 -26 -125 -16 -67 -30 -128
-30 -136 0 -9 -20 -46 -44 -83 -121 -189 -171 -355 -132 -446 39 -94 189 -148
272 -98 57 35 88 138 64 212 -11 33 -11 49 -1 86 18 70 68 184 108 249 71 116
92 160 118 254 25 88 55 165 108 280 30 66 68 207 74 271 5 54 4 56 -37 93
-47 42 -85 60 -146 71 -62 10 -105 -12 -148 -78 -41 -61 -180 -196 -266 -258
-79 -57 -204 -138 -208 -134 -5 5 79 168 104 201 13 17 24 34 24 38 0 4 11 22
24 39 29 38 45 100 38 146 -6 41 -49 84 -99 99 -93 28 -129 8 -238 -134 -77
-101 -185 -277 -185 -302 0 -7 -7 -29 -17 -50 l-16 -39 -41 15 c-23 8 -81 16
-131 19 -73 4 -110 0 -200 -22 -60 -14 -140 -32 -177 -40 -37 -8 -79 -19 -93
-25 -14 -5 -28 -10 -31 -10 -12 0 177 227 235 282 l66 63 5 -49 5 -49 50 -13
c81 -21 156 4 242 80 45 39 63 76 63 130 0 55 -29 92 -103 135 -97 55 -228 77
-325 55z m180 -78 c31 -8 82 -28 112 -46 93 -52 88 -100 -15 -169 -103 -69
-161 -46 -104 40 33 51 30 73 -11 77 -76 7 -218 -101 -347 -265 -25 -32 -73
-92 -106 -134 -75 -94 -100 -158 -108 -267 -5 -75 -4 -87 12 -98 49 -36 239 7
354 80 27 17 64 39 82 49 52 29 22 37 -74 19 -78 -14 -93 -14 -135 -1 -36 12
-49 21 -57 43 -16 45 -5 50 200 96 55 12 113 26 129 31 40 13 198 11 252 -2
24 -6 58 -24 75 -40 l31 -29 -52 -42 c-92 -75 -276 -199 -321 -216 -13 -6 -53
-24 -89 -42 -99 -50 -228 -69 -334 -50 -112 21 -170 57 -218 139 -36 61 -38
161 -5 236 28 64 96 183 108 191 5 3 20 22 33 43 23 35 115 143 194 224 20 21
53 48 72 59 19 12 44 29 55 39 24 21 115 47 170 48 22 0 66 -6 97 -13z m716
-52 c15 -10 22 -25 22 -47 0 -29 -10 -48 -80 -152 -57 -85 -190 -366 -190
-402 0 -7 7 -13 15 -13 14 0 251 151 392 251 88 62 226 194 278 268 l38 53 46
-6 c51 -7 121 -50 121 -75 0 -9 -9 -40 -20 -69 -11 -29 -20 -64 -20 -77 0 -14
-16 -59 -35 -99 -19 -41 -35 -78 -35 -83 0 -4 -9 -26 -21 -47 -12 -22 -31 -79
-44 -126 -25 -98 -60 -179 -103 -242 -58 -84 -116 -219 -142 -326 -10 -45 -10
-58 4 -93 19 -47 8 -109 -23 -131 -31 -22 -104 -10 -140 22 -28 26 -31 35 -31
87 0 86 43 191 135 333 23 36 46 83 49 105 12 70 76 319 86 337 15 26 13 78
-3 78 -20 0 -73 -28 -87 -45 -7 -8 -18 -15 -25 -15 -6 0 -30 -12 -51 -27 -22
-16 -55 -37 -74 -47 -19 -10 -64 -43 -100 -71 -85 -68 -139 -95 -191 -95 -70
0 -115 19 -151 64 -30 37 -33 47 -33 107 0 36 5 72 11 80 6 8 14 25 17 39 17
79 84 208 158 305 24 31 56 75 71 97 15 22 34 49 44 59 21 23 81 25 112 3z"/>
<path d="M8668 1630 c-39 -21 -78 -64 -78 -87 0 -18 -25 -52 -114 -151 -37
-42 -79 -94 -93 -115 -13 -21 -31 -46 -41 -56 -9 -10 -30 -36 -47 -57 l-30
-39 -6 120 c-10 188 -56 282 -155 318 -94 33 -159 21 -222 -43 -101 -102 -131
-141 -143 -182 -7 -24 -23 -55 -35 -70 -13 -16 -26 -37 -29 -49 -10 -29 -46
-82 -84 -119 -17 -17 -31 -37 -31 -44 0 -7 -8 -20 -18 -29 -9 -9 -37 -58 -61
-109 -24 -51 -55 -116 -68 -144 -13 -29 -29 -84 -35 -123 -9 -63 -8 -77 8
-112 10 -23 38 -57 62 -77 37 -30 53 -36 100 -39 94 -6 135 30 153 135 8 45
38 117 109 258 l98 194 5 -107 c11 -249 19 -283 79 -340 48 -46 113 -73 178
-73 71 0 109 23 140 86 34 68 138 240 175 291 16 23 39 54 50 70 l20 28 6
-120 c6 -137 18 -170 82 -227 78 -71 174 -84 237 -32 37 31 41 84 10 144 -26
51 -27 147 -1 220 11 30 22 78 26 105 3 28 17 86 29 130 65 225 62 341 -11
407 -62 57 -194 75 -265 38z m187 -76 c36 -15 65 -65 65 -111 0 -42 -27 -175
-49 -240 -11 -32 -23 -83 -27 -113 -4 -30 -17 -86 -30 -125 -34 -99 -33 -191
2 -256 33 -59 27 -79 -21 -79 -68 0 -126 48 -151 123 -19 57 -14 202 12 323
20 95 19 124 -5 124 -22 0 -95 -80 -123 -135 -11 -22 -34 -55 -49 -73 -16 -18
-29 -39 -29 -46 0 -8 -6 -19 -14 -25 -29 -24 -161 -237 -185 -298 -20 -50 -44
-67 -91 -60 -52 7 -109 36 -133 70 -30 39 -47 218 -38 407 3 86 -5 170 -18
183 -17 17 -90 -102 -221 -358 -53 -104 -102 -212 -109 -240 -29 -116 -32
-124 -51 -130 -48 -15 -123 29 -136 79 -9 39 3 115 29 170 13 28 44 93 68 144
24 51 52 100 61 109 10 9 18 22 18 29 0 8 14 20 30 29 17 9 30 21 30 29 0 7
13 33 30 57 16 24 30 52 30 61 0 9 14 26 30 38 24 17 30 29 30 58 0 29 8 45
34 72 19 19 54 56 77 83 40 46 43 47 98 47 83 0 112 -22 141 -106 30 -89 37
-235 17 -359 -8 -49 -13 -93 -10 -97 2 -5 12 -8 23 -8 20 0 61 43 118 127 22
32 57 76 77 98 21 22 53 63 71 91 19 29 53 69 75 91 50 47 124 151 132 185 6
24 32 40 82 51 25 6 69 -1 110 -19z"/>
<path d="M100 655 l0 -295 2545 0 2545 0 0 295 0 295 -2545 0 -2545 0 0 -295z
m520 185 l0 -30 -125 0 -125 0 0 -65 0 -65 110 0 110 0 0 -25 0 -25 -110 0
-110 0 0 -95 0 -95 -30 0 -30 0 0 215 0 215 155 0 155 0 0 -30z m2191 13 c34
-20 52 -64 39 -97 -4 -13 -24 -36 -44 -52 l-35 -29 35 -43 c20 -23 39 -42 44
-42 4 0 11 11 14 25 7 26 29 32 56 15 12 -8 12 -14 -3 -45 -23 -49 -22 -56 15
-87 l33 -27 -21 -21 -22 -22 -33 30 c-33 30 -34 30 -59 12 -131 -93 -318 19
-242 145 10 17 35 39 54 49 l36 20 -24 31 c-25 34 -31 74 -14 105 25 47 117
65 171 33z m467 -75 l3 -88 119 0 120 0 0 90 0 90 30 0 30 0 0 -215 0 -215
-30 0 -30 0 0 100 0 100 -120 0 -120 0 0 -100 0 -100 -35 0 -35 0 0 208 c0
115 3 212 7 216 4 4 19 6 33 4 24 -3 25 -5 28 -90z m1182 -123 l0 -215 -30 0
-30 0 0 215 0 215 30 0 30 0 0 -215z m330 135 c3 -42 8 -70 13 -63 14 22 83
35 127 23 63 -17 74 -42 78 -186 l4 -124 -31 0 -31 0 0 99 c0 55 -4 111 -10
125 -19 51 -87 59 -130 16 -18 -18 -20 -34 -20 -130 l0 -110 -30 0 -30 0 0
216 0 215 28 -3 c26 -3 27 -5 32 -78z m-3880 10 c0 -49 1 -50 30 -50 23 0 30
-4 30 -20 0 -16 -7 -20 -30 -20 l-31 0 3 -107 3 -108 28 -3 c21 -3 27 -9 27
-28 0 -22 -4 -24 -42 -24 -71 0 -78 14 -78 152 0 111 -1 118 -20 118 -13 0
-20 7 -20 20 0 13 7 20 20 20 17 0 20 7 20 38 0 30 5 41 23 50 35 17 37 15 37
-38z m3710 0 c0 -47 2 -50 25 -50 18 0 25 -5 25 -20 0 -15 -7 -20 -25 -20
l-25 0 0 -109 0 -110 28 -3 c19 -2 28 -9 30 -25 3 -21 -1 -23 -39 -23 -72 0
-79 14 -79 152 l0 118 -26 0 c-33 0 -30 33 4 38 18 3 22 10 22 41 0 29 5 40
23 49 35 17 37 15 37 -38z m-3398 -50 c67 -19 78 -45 78 -186 l0 -124 -30 0
-30 0 0 115 c0 102 -2 117 -20 135 -35 35 -108 20 -129 -27 -6 -13 -11 -69
-11 -123 l0 -100 -30 0 -30 0 0 155 0 155 25 0 c14 0 28 -7 32 -15 5 -14 8
-14 27 -1 13 8 33 16 47 19 13 2 26 5 29 6 3 0 22 -4 42 -9z m390 -18 c33 -19
68 -81 68 -121 l0 -31 -126 0 -126 0 6 -27 c16 -66 106 -97 154 -53 12 12 22
25 22 30 0 13 57 13 65 0 3 -5 -9 -26 -27 -45 -69 -75 -208 -65 -258 18 -25
40 -26 125 -4 172 36 76 145 103 226 57z m331 6 c15 -6 34 -23 42 -38 14 -27
13 -28 -10 -34 -18 -5 -31 1 -49 19 -31 31 -94 35 -119 7 -24 -27 -4 -47 63
-62 82 -19 119 -38 132 -65 17 -37 -1 -85 -41 -108 -39 -24 -122 -27 -169 -8
-33 14 -68 63 -57 81 10 16 55 12 55 -4 0 -44 111 -63 146 -25 28 31 8 51 -72
72 -106 27 -136 58 -120 123 14 53 114 75 199 42z m329 1 c48 -25 62 -63 27
-74 -14 -5 -27 1 -44 19 -28 30 -88 36 -121 12 -29 -22 -7 -49 52 -63 94 -24
131 -42 144 -73 15 -36 7 -63 -30 -93 -61 -51 -186 -39 -227 22 -12 18 -20 37
-17 42 11 18 47 8 74 -21 35 -37 98 -42 130 -10 33 33 13 53 -74 74 -60 14
-81 24 -101 48 -14 16 -25 38 -25 48 0 29 42 71 80 80 37 9 104 3 132 -11z
m1627 -8 c39 -27 62 -64 68 -109 l6 -42 -127 0 c-121 0 -126 -1 -126 -21 0
-11 13 -34 29 -50 42 -41 99 -41 134 1 16 19 35 30 51 30 35 0 34 -29 -3 -64
-68 -66 -204 -51 -251 27 -27 43 -27 141 -1 180 47 72 153 95 220 48z m379 2
c33 -21 40 -47 44 -176 l3 -117 -24 0 c-13 0 -29 7 -36 16 -10 15 -15 15 -41
2 -43 -22 -85 -28 -130 -18 -76 17 -101 96 -44 143 28 24 43 28 153 43 44 6
47 8 47 35 0 34 -23 49 -79 49 -40 0 -73 -20 -83 -50 -4 -13 -58 -4 -58 11 0
23 59 72 96 79 50 10 122 2 152 -17z m-3523 -138 l0 -150 -32 -3 -33 -3 0 149
c0 82 3 152 7 156 4 4 19 6 33 4 l25 -3 0 -150z"/>
<path d="M2678 627 c-42 -36 -51 -62 -33 -97 27 -53 76 -64 133 -30 17 11 32
25 32 32 0 10 -95 118 -103 118 -1 0 -14 -10 -29 -23z"/>
</g>
</svg>
